<svg xmlns="http://www.w3.org/2000/svg" viewBox="0 0 512 512" style="height: 512px; width: 512px;" height="512" width="512"><path d="M0 0h512v512H0z" fill="#000" fill-opacity="1"></path><g class="" transform="translate(0,0)" style=""><path d="M215.97 27.813c-2.218.04-4.35.177-6.407.375l-.532.062c-2.774.266-5.796 1.01-9.124 1.844-4.418 1.11-8.096 2.607-11.125 4.406l77.782 59.313 7.375 5.656-5.593 7.405-13.72 18.156 67.595 51.626 14.217-18.812 9.47-12.53 6.5 14.342 19.656 43.47 60.593-80.095-47.187-7.124-15.533-2.312 9.47-12.563 14.28-18.843-67.593-51.624L310.78 50.78l-5.03 6.657-7.188-4.25c-28.635-16.917-58.02-25.157-80.343-25.374a76.706 76.706 0 0 0-2.25 0zM453 127.124l-71.47 94.438 34.564 26.187c44.24-20.22 64.01-52.594 71.312-94.625l-34.406-26zm-193.688 25.03c-27.17 33.09-55.308 64.706-82.812 96.22l47.406 39.875c23.11-35.343 46.336-71.61 71.938-108.22l-36.53-27.874zM164.25 262.47c-11.355 13.115-22.564 26.254-33.5 39.5l48.375 52.717c11.707-16.6 23.107-33.515 34.438-50.687l-49.313-41.53zm-45.438 54.124a1111.646 1111.646 0 0 0-23.093 29.72l33.468 73.842c13.586-16.22 26.434-32.893 38.843-49.937l-49.218-53.626zm-35.75 47.03c-12.108 16.978-23.57 34.335-34.124 52.282L98.53 454.47a688.442 688.442 0 0 0 17.22-18.72l-32.688-72.125zm-43.437 68.688a546.43 546.43 0 0 0-14.75 29l37.375 28.313a611.184 611.184 0 0 0 23.125-21.72l-45.75-35.592z" fill="#fff" fill-opacity="1"></path></g><g class="" transform="translate(328,324)" style=""><g transform="translate(9.6, 9.6) scale(0.7, 0.7) rotate(0, 128, 128)"><circle cx="128" cy="128" r="128" fill="#000" fill-opacity="1"></circle><circle stroke="#ffe0af" stroke-opacity="1" fill="#000" fill-opacity="1" stroke-width="18" cx="128" cy="128" r="101"></circle><path fill="#ffe0af" fill-opacity="1" d="M150.094 59.7L139.07 78.695c-7.27-1.615-15.652-1.322-22.142.234l-10.791-19.054L80.33 74.858 91.5 94.554a48.133 48.133 0 0 0-9.938 18.63l-23.52.105-.197 29.834 25.035-.119a49.2 49.2 0 0 0 9.666 15.859L79.5 181.36l25.61 14.852 13.108-22.596a47.62 47.62 0 0 0 18.542.3l13.102 22.58 25.623-15.283c-4.08-7.22-8.161-14.44-12.244-21.66a48.554 48.554 0 0 0 10.252-16.378l24.464-.092.198-29.834-23.235-.156a48.717 48.717 0 0 0-10.387-19.304l11.172-19.24zm-19.705 44.292c12.71 1.043 22.352 12.16 21.787 25.043-.584 13.297-11.839 23.598-25.137 23.015-13.3-.582-23.855-11.836-23.018-25.121.905-14.35 13.161-24.021 26.368-22.937z"></path></g></g></svg>