<svg xmlns="http://www.w3.org/2000/svg" viewBox="0 0 512 512" style="height: 512px; width: 512px;" height="512" width="512"><path d="M0 0h512v512H0z" fill="#000" fill-opacity="1"></path><g class="" transform="translate(0,0)" style=""><path d="M59.938 17.75 15.78 61.906l32.064 32.032L92 49.78 59.937 17.75zM93.218 75 74.376 93.844c17.814 31.92 50.57 65.266 80.78 83.812l21.72-21.72C157.975 125.16 124.423 92.678 93.22 75zM240 119.25 112.812 246.438l13.313 13.312 127.188-127.188L240 119.25zm4.938 48.844-74.97 74.97 11.97 11.967c5.18-4.87 11.826-7.28 18.468-7.28 6.903 0 13.8 2.61 19.063 7.875 10.32 10.324 10.515 26.965.593 37.53l132.718 132.72c35.123 35.124 93.42 77.742 141.72 66.75-23.436-21.284-81.765-106.71-71.656-146.188l-40.688 7.25 7.656-40.062-40.562 7.156 8.094-39.592-40.063 7.625 7.626-40.063-40.53 7.156 7.75-40.625-47.188-47.186z" fill="#fff" fill-opacity="1"></path></g><g class="" transform="translate(-11,327)" style=""><g transform="translate(9.6, 9.6) scale(0.7, 0.7) rotate(0, 128, 128)"><circle cx="128" cy="128" r="128" fill="#000" fill-opacity="1"></circle><circle stroke="#d0021b" stroke-opacity="1" fill="#000" fill-opacity="1" stroke-width="18" cx="128" cy="128" r="101"></circle><path fill="#d0021b" fill-opacity="1" d="M99.016 83.18c0 27.973 28.984 32.635 28.984 55.946 0 9.325-9.661 23.312-24.153 23.312-14.492 0-24.153-13.987-14.492-37.298-14.491 9.324-19.322 18.649-19.322 27.973 0 23.312 24.153 46.623 57.967 46.623 33.813 0 57.966-13.987 57.966-41.96.216-41.378-49.4-55.2-62.797-74.597-9.66-13.987-4.83-23.311 4.83-32.636-19.321 4.663-28.983 17.717-28.983 32.636z"></path></g></g></svg>