<svg xmlns="http://www.w3.org/2000/svg" viewBox="0 0 512 512" style="height: 512px; width: 512px;" height="512" width="512"><path d="M0 0h512v512H0z" fill="#000" fill-opacity="1"></path><g class="" transform="translate(0,0)" style=""><path d="M145.75 19.78 107.906 116l43.03 31.938 48.814-96.97-54-31.187zm77.094 26.907L152.47 186.5l86.468 49.938 88.53-129.344-104.624-60.406zm112.187 82.376L262.376 235.28c17.46 28.874 29.09 63.707 35.375 103.126 56.317-31.27 107.836-85.753 135.28-152.75l-98-56.594zm114.345 66.03c-30.433 72.7-86.892 130.64-148.938 163.063 2.02 18.153 3.012 37.162 3 56.906 71.107-23.5 159.603-92.374 187.907-195.75l-41.97-24.218zm-289.094 17.5c-39.7 79.313-78.154 159.572-137.905 237.157v44.78H66.72c41.425-87.972 93.64-170.09 145.53-251.936l-51.97-30z" fill="#fff" fill-opacity="1"></path></g><g class="" transform="translate(328,324)" style=""><g transform="translate(9.6, 9.6) scale(0.7, 0.7) rotate(0, 128, 128)"><circle cx="128" cy="128" r="128" fill="#000" fill-opacity="1"></circle><circle stroke="#d0021b" stroke-opacity="1" fill="#000" fill-opacity="1" stroke-width="18" cx="128" cy="128" r="101"></circle><path fill="#d0021b" fill-opacity="1" d="M99.016 83.18c0 27.973 28.984 32.635 28.984 55.946 0 9.325-9.661 23.312-24.153 23.312-14.492 0-24.153-13.987-14.492-37.298-14.491 9.324-19.322 18.649-19.322 27.973 0 23.312 24.153 46.623 57.967 46.623 33.813 0 57.966-13.987 57.966-41.96.216-41.378-49.4-55.2-62.797-74.597-9.66-13.987-4.83-23.311 4.83-32.636-19.321 4.663-28.983 17.717-28.983 32.636z"></path></g></g></svg>