<svg xmlns="http://www.w3.org/2000/svg" style="height:512px;width:512px" height="512" width="512"><path d="M0 0h512v512H0z"/><g fill="none" stroke="#fff" stroke-width="9" stroke-linecap="round" stroke-linejoin="round" opacity=".95"><ellipse cx="256" cy="256" rx="190" ry="170" transform="rotate(-5 256 256)"/><ellipse cx="253" cy="258" rx="175" ry="155" transform="rotate(12 253 258)"/><ellipse cx="258" cy="252" rx="160" ry="140" transform="rotate(-8 258 252)"/><ellipse cx="254" cy="255" rx="145" ry="125" transform="rotate(5 254 255)"/><ellipse cx="257" cy="259" rx="130" ry="110" transform="rotate(-15 257 259)"/><ellipse cx="255" cy="254" rx="115" ry="95" transform="rotate(2 255 254)"/><g stroke-width="7"><path d="M250 65c3 15 8 15 12 0"/><path d="M246 75c6 15 13 15 19 0m-15 372c3-15 8-15 12 0"/><path d="M246 437c6-15 13-15 19 0M55 250c15 3 15 8 0 12"/><path d="M65 246c15 6 15 13 0 19m392-15c-15 3-15 8 0 12"/><path d="M447 246c-15 6-15 13 0 19"/></g><path d="M120 160c-20-30-25-55-5-70m265 280c30 20 40 45 25 60" stroke-width="6"/></g></svg>