<svg xmlns="http://www.w3.org/2000/svg" viewBox="0 0 512 512" style="height: 512px; width: 512px;" height="512" width="512"><path d="M0 0h512v512H0z" fill="#000" fill-opacity="1"></path><g class="" transform="translate(0,0)" style=""><path d="M327.672 195.564 438.26 84.986a25.535 25.535 0 1 0-11.828-11.922l-110.683 110.63zM151.888 336.86l23.75 23.75L65.66 470.581a16.794 16.794 0 0 1-23.75-23.751zm149.808-143.522 16.33 16.33-134.79 134.79-16.33-16.33z" fill="#fff" fill-opacity="1"></path></g><g class="" transform="translate(328,324)" style=""><g transform="translate(9.6, 9.6) scale(0.7, 0.7) rotate(0, 128, 128)"><circle cx="128" cy="128" r="128" fill="#000" fill-opacity="1"></circle><circle stroke="#f8e71c" stroke-opacity="1" fill="#000" fill-opacity="1" stroke-width="18" cx="128" cy="128" r="101"></circle><path fill="#f8e71c" fill-opacity="1" d="M101.265 58.881h53.377l-28.835 51.29 53.1 5.232-78.643 81.716 24.95-62.497-48.121-5.661z"></path></g></g></svg>