<svg xmlns="http://w3.org" width="512" height="512" style="width:512px;height:512px"><path d="M0 0h512v512H0z"/><ellipse cx="256" cy="256" rx="190" ry="170" fill="none" stroke="#fff" stroke-width="12"/><ellipse cx="253" cy="258" rx="175" ry="155" fill="none" stroke="#fff" stroke-width="12"/><ellipse cx="258" cy="252" rx="160" ry="140" fill="none" stroke="#fff" stroke-width="12"/><ellipse cx="254" cy="255" rx="145" ry="125" fill="none" stroke="#fff" stroke-width="12"/><ellipse cx="257" cy="259" rx="130" ry="110" fill="none" stroke="#fff" stroke-width="12"/><ellipse cx="255" cy="254" rx="115" ry="95" fill="none" stroke="#fff" stroke-width="12"/><path fill="none" stroke="#00d5f0" stroke-width="4" stroke-linecap="round" d="M230 63c80 2 155 42 185 107s25 145-20 205M90 200c-25 90 15 180 90 225s175 30 230-35"/><path fill="none" stroke="#00d5f0" stroke-width="4" stroke-linecap="round" d="M195 240c-20 55 15 120 75 125s95-50 85-110"/><path fill="#0f6" d="m187 71 22 10-8 16-22-10Z"/><path fill="none" stroke="#0f6" stroke-width="4" stroke-linecap="round" d="m195 75-30-20"/><circle cx="165" cy="55" r="8" fill="#0f6"/><circle cx="165" cy="55" r="3" fill="#fff"/><path fill="#0f6" d="m311 413 22 10-8 16-22-10Z"/><path fill="none" stroke="#0f6" stroke-width="4" stroke-linecap="round" d="m315 425 30 20"/><circle cx="345" cy="445" r="8" fill="#0f6"/><circle cx="345" cy="445" r="3" fill="#fff"/></svg>