<svg version="1.0" xmlns="http://www.w3.org/2000/svg"  width="136.000000pt" height="190.000000pt" viewBox="0 0 136.000000 190.000000"  preserveAspectRatio="xMidYMid meet"> <g transform="translate(0.000000,190.000000) scale(0.100000,-0.100000)" fill="#000000" stroke="none"> <path d="M665 1754 c-27 -15 -52 -28 -55 -31 -3 -2 -5 -104 -5 -226 l0 -222 -265 -5 -265 -5 0 -50 0 -50 265 -5 265 -5 0 -105 0 -105 -254 -2 c-140 -1 -260 -4 -267 -7 -18 -7 -19 -82 -1 -93 6 -4 127 -8 267 -8 l255 0 0 -105 0 -105 -265 -5 -264 -5 -13 -25 c-31 -59 -26 -64 272 -310 154 -126 284 -230 290 -229 5 0 39 14 75 32 l65 32 3 197 2 198 263 2 262 3 0 50 0 50 -263 3 -263 2 3 108 3 107 260 0 260 0 3 53 c2 37 -1 52 -10 52 -7 0 -125 2 -263 3 l-250 2 -3 108 -3 107 249 0 249 0 22 56 c11 31 21 66 20 77 0 24 -544 480 -577 484 -9 1 -39 -9 -67 -23z m283 -358 c78 -65 142 -120 142 -122 0 -2 -72 -4 -160 -4 l-160 0 0 136 c0 129 1 134 18 122 10 -7 82 -66 160 -132z m-340 -1038 c3 -172 5 -170 -82 -95 -34 29 -110 93 -171 142 -60 49 -114 92 -120 97 -5 5 76 7 180 6 l190 -3 3 -147z"/> </g> </svg>